<?xml version='1.0' encoding='utf-8'?>
<svg xmlns="http://www.w3.org/2000/svg" version="1.1" width="1242px" height="263px" viewBox="-0.5 -0.5 1242 263" content="&lt;mxfile host=&quot;app.diagrams.net&quot; modified=&quot;2021-06-18T12:57:30.624Z&quot; agent=&quot;5.0 (Macintosh; Intel Mac OS X 10_15_4) AppleWebKit/537.36 (KHTML, like Gecko) Chrome/91.0.4472.106 Safari/537.36&quot; etag=&quot;2mwFfRFQc9Na7yeWIvZw&quot; version=&quot;14.7.10&quot; type=&quot;device&quot;&gt;&lt;diagram id=&quot;IGji9eokSQT5zujZnSJ8&quot; name=&quot;第 1 页&quot;&gt;7V1dc+I4Fv01rpp9SMqS5Q89AiE9u5ue9Exqez5ephxQgzsEMY4Jyfz6lY0NWFIypIMl3YZ+aSMbOT5H6OrcI0teMLh/+pCni+lHPmYzD/vjJy+48DBGESXiv7LkeV1CSV0wybNxfdG24Cb7m9WFfl26zMbsoXVhwfmsyBbtwhGfz9moaJWlec5X7cu+8Fn7rot0wpSCm1E6U0t/zcbFdF2a4Hhb/iPLJtPmzuKJ12fu0+biuoqHaTrmq3VR9XDB0AsGOefF+uj+acBmJXgNLmsELl84u/nDcjYv9vnC408TMv35cfRH8uGv/z5f/ZH/+8/fzlAQret5TGfL+pG9YeTRgdfrecPQS2h1kHj9oUdRedCLvSTyhqIclyXrZyueG8AK9iT+nP60uJ+JAiQOH4qc37EBn/FclMz5XFzZ/5LNZlJROssmc/FxJB6IifL+I8uLTFDRq0/cZ+NxeZv+apoV7GaRjsp7rkTDE2U5X87HrHxWX3xSwan/0rJO9rRTVIP1gfF7VuTP4pL6bIDX36gbLg7qGlY7zaBupNOdFlCz4Kd1w5tsKt5yIw5qevRUXcR3q3TF+KL/NOoVvwzu/vr94gypRMnYiya2KA8XOR+xh4cXkNqh5jYd3U0q5K6XxSwraajKDwBfGLfhU9ELNOihrtDDoNHTtD2j6AWg0SOW0SMG0dvtVz3Rbm5TxLDSCYszvh8Ne5flN/i82Cn/Uv3rhIfQHA+ID37t/ye8/t/FHf3p4fOHVZHfneFIwZ2NRbSvP/K8mPIJn6ez4bZUiivba644X9SYf2VF8VwPXdJlwdtMvYhjee9XUczZLC2yx/ZIRIdK/dVPPBO32KCPYtKCP4raNTzwZT5i9Zd2Bw5yPZS+Wk+R5hNWKPVUFG2eZi/W+PT2MV3cfb7qk9Hl5Nb/en3Nm77HBmkSQ1oW1yi+8usP19etUXrlOd/bCN7VRYWnLmrdti2HCs1o/Ch5iC3zEIMe8CSW0UtAo0cto0dBo4d8y/A1FUPFD9nGD3aiAdnONCDYqQZkO9eAYCcbkO1sAzKZbugAP4NZAj1+JrVQB/jZljDIpIbpAD/b0gPB1h7ItvhAsNUHsi0/MOz4gW3rDww7fmCD+gPxT6PlfBrm/nP/4/Ln59+K5PczrPZ/P6T/EgXekHj9C69/6Q1jjxKvJ37oflCdCL1+ZUyXJ3peQkoLu9+vDOvQS3rlpeJUr+fRWOHiuzGsMfHbTIbReahwiYJYQyY9BJk6y0X9LQwTLwm8ZFBNM6Be7/I7ZsRvMxJGCh04Udk4xBQCLRsaZXWa61EhjoP2T8fgZA8tU8BiMCaJFEQMxhANfMBCsAyfwRSMFj5gCk6Gz2AGRgsfMAEnw2d7mgYw/SbDZzD/ooUPmH0kw2cw/aKFD5p9JONnMP2ixw+YfSTjZzD9osdPI5kg4WfS/9UDaNI/cmoOjUKF0VSOjoqjnfmqUGFbERl1tdymwra6gmaQKQDa1lfQHDIFQNsKC5pFpgBoW2Mh4CLLpMmt9wWAqyyTLrceQOAyy6TNrQcQuM4y6XPrAQQ2T0/1KGwDqAkiJzuuPEuQRJVtOy4AFq4IkfxMy009ABatZPxsS8ZmLQKo+NlWjAGwWCXjZ1swBsDmI8j42daLAbAJCTJ+tuWibpUaSPjZVosBsIyZjJ9tsRgAS5jJ+Fk35QJgCTMFQNtikQBXINYNMAJcgli3rQhwDWLdtiLARYh124oAVyHWbSsCXIZYt63I0a7Po1BhW9IQk5LGbSpsqyNiUh05TYV1U44A11nWTblQHaT9cPvi26ehd3r7tD6bUMmz04wWzb57GmqGiyd/tTwbNeapK/5qCGxgGvuh1G1Z7rWOdlwqM2E7SxIe7bBUZsJ2uiU82lGpzITtvE1kMnftNBO2E0DN/U9M2M4kRRj2iMd2+icClkyX8bOds4mA5dJl/Kw72hFwyWLd0Y6AzelRALQt+iJgk3oUAG1rtQjYrB4FQNsSq9nrDiyAtpVRDGxWjwKgbUETmxQ0XQBoW4fEwHWIdR86Bi5ErLvHMXAlYt3zjYErEeueb6wZSJ+MwvJsEsfnElm2rcIY2KCd+vhcHrafY3VdZrMtHtjAXQUR2wcxATZ4V0EMHAAR2ABeBZE4ACKwQbwKYugAiMAG8iqIkQMgAhvMqyDGDoAIbECvgpg4ACIwe0EFkToAIjCLQTPY9h1AEb5kcUCzJOA1C3JAtNCjnYul4cMB/UNN6h/X+XBASlGTUsp1PhxQZfRoV3PX8OGAwKNHu6S7hg8HtCIFrxWRA2KRgheLyAG1SMGrReyAWqQanTOMvAR7vUH1rinxRHMt3cjY6wfVu6Z+WSgj/d2YkMgP268rIkJ1LBndShP5GiF1Mo3XfMXSr8q2Z7yZLA6lZ0JI2jkWaVu84Y3RTEqjLkDELoAIzGVSQAxcABGYy6SAqA9ghkEEphwUEEMXQAQmHBQQIxdABKYbFBBjF0AEZjIpICYugAjMY1JApA6ACG0HXXWw7buAInjJ4oJmgbabroqiC6LF6Ja6naDogmoxuhtuJyi6IFuMbmTbCYou6Baje9A6ZeOpfLgggYxuaes4Hy6oKaMbvDrOhwvCzOh+sY7z4YLGwybVidt8YLNqkU9vH9PF3eerPhldTm79r9fX/EzDxnbp4WrdYjqoLMjLyoIUp8SxQCOalZbjbS6OJuVRuU5xeTGqDvrlt15i9aFgJX0LlmfiGUrbsSr6tP38T3R/yZ7Y+Cb7+wWaL8JhckFKmutLSntS3H3MV63RmUKdhuBXvMqoRaZmQZBIYysHXRGp2vhsPGE39UeeF1M+4fN0NtyWSgbu9porzhc1Ul9ZUTzXUKfLgreJWN+zvNFbUczZLC2yx/b3dKDUX/3EM1HjBv0gaqOPcNSu4oEv8xGrv7WFVq2o8dNfqqhI8wkrlIoqjjbP8+20hS7Thv3107/y98ed0Iub14zfSO+hWNFoHNEHJoGXDKqpGrTsD2XiXJqG8a6uLWimMm/ycZHSt3U1ZeblRnYKUm9nEktL6+uW7jMapRKXu7uDd2NhJAUXGjXTBt8ap8Ik+qeqOo5U1GXq9ohUqBuOSbMK0Zs5PhQxOtfsiKJV2Lxqusk6bAiwFa90DtwpYO1DJqHKZmEaMo2GrMYIdLPjO3h/lmBpA/lvFFYJSV6tp+No1RiPbrK2T7gKO6E3DqJvofdgtOh2VjqeWJWQtq4lloWVzhI9Bap9mIzD9psKmgWVzUapyOX+7uDdGPKxf06kgd+OPf7WaIV8Eu5TX9dRS93mzyEW94laSSd00yB4B9sHY0czUfbUW+7TW9IQK/zpl2ww22k6ndM4fKeJUXwuC6ydt3/f3Gligvepr+NOsxkducniHp1mV3SjwH8H3Qej55QM+cZeE5XTJmUC9XOcjHabGGsYPR4Rh8qFW6mcdNRGswOJOfEx57zY/V2KZ5t+5GNWXvF/&lt;/diagram&gt;&lt;/mxfile&gt;"><defs /><g><rect x="0" y="217" width="80" height="20" fill="none" stroke="none" pointer-events="all" /><g transform="translate(-0.5 -0.5)"><switch><text x="40" y="231" fill="#000000" font-family="Helvetica" font-size="12px" text-anchor="middle">未剪辑视频</text></switch></g><rect x="25" y="7" width="30" height="10" fill="#ffffff" stroke="#000000" pointer-events="all" /><path d="M 28 7 L 28 17 M 52 7 L 52 17" fill="none" stroke="#000000" stroke-miterlimit="10" pointer-events="all" /><rect x="25" y="17" width="30" height="10" fill="#ffffff" stroke="#000000" pointer-events="all" /><path d="M 28 17 L 28 27 M 52 17 L 52 27" fill="none" stroke="#000000" stroke-miterlimit="10" pointer-events="all" /><rect x="25" y="27" width="30" height="10" fill="#ffffff" stroke="#000000" pointer-events="all" /><path d="M 28 27 L 28 37 M 52 27 L 52 37" fill="none" stroke="#000000" stroke-miterlimit="10" pointer-events="all" /><rect x="25" y="37" width="30" height="10" fill="#1ba1e2" stroke="#006eaf" pointer-events="all" /><path d="M 28 37 L 28 47 M 52 37 L 52 47" fill="none" stroke="#006eaf" stroke-miterlimit="10" pointer-events="all" /><path d="M 142 52 L 160.63 52" fill="none" stroke="#000000" stroke-miterlimit="10" pointer-events="stroke" /><path d="M 165.88 52 L 158.88 55.5 L 160.63 52 L 158.88 48.5 Z" fill="#000000" stroke="#000000" stroke-miterlimit="10" pointer-events="all" /><path d="M 55 52 L 75 52 L 54 52 L 77.63 52" fill="none" stroke="#000000" stroke-miterlimit="10" pointer-events="stroke" /><path d="M 82.88 52 L 75.88 55.5 L 77.63 52 L 75.88 48.5 Z" fill="#000000" stroke="#000000" stroke-miterlimit="10" pointer-events="all" /><rect x="25" y="47" width="30" height="10" fill="#1ba1e2" stroke="#006eaf" pointer-events="all" /><path d="M 28 47 L 28 57 M 52 47 L 52 57" fill="none" stroke="#006eaf" stroke-miterlimit="10" pointer-events="all" /><rect x="25" y="57" width="30" height="10" fill="#1ba1e2" stroke="#006eaf" pointer-events="all" /><path d="M 28 57 L 28 67 M 52 57 L 52 67" fill="none" stroke="#006eaf" stroke-miterlimit="10" pointer-events="all" /><rect x="25" y="67" width="30" height="10" fill="#ffffff" stroke="#000000" pointer-events="all" /><path d="M 28 67 L 28 77 M 52 67 L 52 77" fill="none" stroke="#000000" stroke-miterlimit="10" pointer-events="all" /><rect x="25" y="77" width="30" height="10" fill="#ffffff" stroke="#000000" pointer-events="all" /><path d="M 28 77 L 28 87 M 52 77 L 52 87" fill="none" stroke="#000000" stroke-miterlimit="10" pointer-events="all" /><rect x="25" y="87" width="30" height="10" fill="#ffffff" stroke="#000000" pointer-events="all" /><path d="M 28 87 L 28 97 M 52 87 L 52 97" fill="none" stroke="#000000" stroke-miterlimit="10" pointer-events="all" /><rect x="25" y="97" width="30" height="10" fill="#ffffff" stroke="#000000" pointer-events="all" /><path d="M 28 97 L 28 107 M 52 97 L 52 107" fill="none" stroke="#000000" stroke-miterlimit="10" pointer-events="all" /><rect x="25" y="107" width="30" height="10" fill="#ffffff" stroke="#000000" pointer-events="all" /><path d="M 28 107 L 28 117 M 52 107 L 52 117" fill="none" stroke="#000000" stroke-miterlimit="10" pointer-events="all" /><rect x="25" y="117" width="30" height="10" fill="#ffffff" stroke="#000000" pointer-events="all" /><path d="M 28 117 L 28 127 M 52 117 L 52 127" fill="none" stroke="#000000" stroke-miterlimit="10" pointer-events="all" /><rect x="25" y="127" width="30" height="10" fill="#ffffff" stroke="#000000" pointer-events="all" /><path d="M 28 127 L 28 137 M 52 127 L 52 137" fill="none" stroke="#000000" stroke-miterlimit="10" pointer-events="all" /><rect x="25" y="137" width="30" height="10" fill="#ffffff" stroke="#000000" pointer-events="all" /><path d="M 28 137 L 28 147 M 52 137 L 52 147" fill="none" stroke="#000000" stroke-miterlimit="10" pointer-events="all" /><rect x="25" y="147" width="30" height="10" fill="#ffffff" stroke="#000000" pointer-events="all" /><path d="M 28 147 L 28 157 M 52 147 L 52 157" fill="none" stroke="#000000" stroke-miterlimit="10" pointer-events="all" /><rect x="25" y="157" width="30" height="10" fill="#ffffff" stroke="#000000" pointer-events="all" /><path d="M 28 157 L 28 167 M 52 157 L 52 167" fill="none" stroke="#000000" stroke-miterlimit="10" pointer-events="all" /><rect x="25" y="167" width="30" height="10" fill="#ffffff" stroke="#000000" pointer-events="all" /><path d="M 28 167 L 28 177 M 52 167 L 52 177" fill="none" stroke="#000000" stroke-miterlimit="10" pointer-events="all" /><rect x="25" y="177" width="30" height="10" fill="#ffffff" stroke="#000000" pointer-events="all" /><path d="M 28 177 L 28 187 M 52 177 L 52 187" fill="none" stroke="#000000" stroke-miterlimit="10" pointer-events="all" /><rect x="25" y="187" width="30" height="10" fill="#ffffff" stroke="#000000" pointer-events="all" /><path d="M 28 187 L 28 197 M 52 187 L 52 197" fill="none" stroke="#000000" stroke-miterlimit="10" pointer-events="all" /><rect x="25" y="197" width="30" height="10" fill="#ffffff" stroke="#000000" pointer-events="all" /><path d="M 28 197 L 28 207 M 52 197 L 52 207" fill="none" stroke="#000000" stroke-miterlimit="10" pointer-events="all" /><rect x="208" y="242.5" width="137" height="19" fill="none" stroke="none" pointer-events="all" /><g transform="translate(-0.5 -0.5)"><switch><text x="277" y="256" fill="#000000" font-family="Helvetica" font-size="12px" text-anchor="middle">(a) 使用 3 帧的滑动窗</text></switch></g><rect x="168" y="42" width="28" height="20" fill="none" stroke="none" pointer-events="all" /><g transform="translate(-0.5 -0.5)"><switch><text x="182" y="56" fill="#000000" font-family="Helvetica" font-size="12px" text-anchor="middle">背景</text></switch></g><rect x="191" y="217" width="80" height="20" fill="none" stroke="none" pointer-events="all" /><g transform="translate(-0.5 -0.5)"><switch><text x="231" y="231" fill="#000000" font-family="Helvetica" font-size="12px" text-anchor="middle">未剪辑视频</text></switch></g><rect x="216" y="7" width="30" height="10" fill="#ffffff" stroke="#000000" pointer-events="all" /><path d="M 219 7 L 219 17 M 243 7 L 243 17" fill="none" stroke="#000000" stroke-miterlimit="10" pointer-events="all" /><rect x="216" y="17" width="30" height="10" fill="#ffffff" stroke="#000000" pointer-events="all" /><path d="M 219 17 L 219 27 M 243 17 L 243 27" fill="none" stroke="#000000" stroke-miterlimit="10" pointer-events="all" /><rect x="216" y="27" width="30" height="10" fill="#ffffff" stroke="#000000" pointer-events="all" /><path d="M 219 27 L 219 37 M 243 27 L 243 37" fill="none" stroke="#000000" stroke-miterlimit="10" pointer-events="all" /><rect x="216" y="37" width="30" height="10" fill="#ffffff" stroke="#000000" pointer-events="all" /><path d="M 219 37 L 219 47 M 243 37 L 243 47" fill="none" stroke="#000000" stroke-miterlimit="10" pointer-events="all" /><rect x="216" y="47" width="30" height="10" fill="#ffffff" stroke="#000000" pointer-events="all" /><path d="M 219 47 L 219 57 M 243 47 L 243 57" fill="none" stroke="#000000" stroke-miterlimit="10" pointer-events="all" /><rect x="216" y="57" width="30" height="10" fill="#ffffff" stroke="#000000" pointer-events="all" /><path d="M 219 57 L 219 67 M 243 57 L 243 67" fill="none" stroke="#000000" stroke-miterlimit="10" pointer-events="all" /><rect x="216" y="67" width="30" height="10" fill="#ffffff" stroke="#000000" pointer-events="all" /><path d="M 219 67 L 219 77 M 243 67 L 243 77" fill="none" stroke="#000000" stroke-miterlimit="10" pointer-events="all" /><rect x="216" y="77" width="30" height="10" fill="#ffffff" stroke="#000000" pointer-events="all" /><path d="M 219 77 L 219 87 M 243 77 L 243 87" fill="none" stroke="#000000" stroke-miterlimit="10" pointer-events="all" /><rect x="216" y="87" width="30" height="10" fill="#ffffff" stroke="#000000" pointer-events="all" /><path d="M 219 87 L 219 97 M 243 87 L 243 97" fill="none" stroke="#000000" stroke-miterlimit="10" pointer-events="all" /><rect x="216" y="97" width="30" height="10" fill="#1ba1e2" stroke="#006eaf" pointer-events="all" /><path d="M 219 97 L 219 107 M 243 97 L 243 107" fill="none" stroke="#006eaf" stroke-miterlimit="10" pointer-events="all" /><rect x="216" y="107" width="30" height="10" fill="#1ba1e2" stroke="#006eaf" pointer-events="all" /><path d="M 219 107 L 219 117 M 243 107 L 243 117" fill="none" stroke="#006eaf" stroke-miterlimit="10" pointer-events="all" /><rect x="216" y="117" width="30" height="10" fill="#1ba1e2" stroke="#006eaf" pointer-events="all" /><path d="M 219 117 L 219 127 M 243 117 L 243 127" fill="none" stroke="#006eaf" stroke-miterlimit="10" pointer-events="all" /><rect x="216" y="127" width="30" height="10" fill="#ffffff" stroke="#000000" pointer-events="all" /><path d="M 219 127 L 219 137 M 243 127 L 243 137" fill="none" stroke="#000000" stroke-miterlimit="10" pointer-events="all" /><rect x="216" y="137" width="30" height="10" fill="#ffffff" stroke="#000000" pointer-events="all" /><path d="M 219 137 L 219 147 M 243 137 L 243 147" fill="none" stroke="#000000" stroke-miterlimit="10" pointer-events="all" /><rect x="216" y="147" width="30" height="10" fill="#ffffff" stroke="#000000" pointer-events="all" /><path d="M 219 147 L 219 157 M 243 147 L 243 157" fill="none" stroke="#000000" stroke-miterlimit="10" pointer-events="all" /><rect x="216" y="157" width="30" height="10" fill="#ffffff" stroke="#000000" pointer-events="all" /><path d="M 219 157 L 219 167 M 243 157 L 243 167" fill="none" stroke="#000000" stroke-miterlimit="10" pointer-events="all" /><rect x="216" y="167" width="30" height="10" fill="#ffffff" stroke="#000000" pointer-events="all" /><path d="M 219 167 L 219 177 M 243 167 L 243 177" fill="none" stroke="#000000" stroke-miterlimit="10" pointer-events="all" /><rect x="216" y="177" width="30" height="10" fill="#ffffff" stroke="#000000" pointer-events="all" /><path d="M 219 177 L 219 187 M 243 177 L 243 187" fill="none" stroke="#000000" stroke-miterlimit="10" pointer-events="all" /><rect x="216" y="187" width="30" height="10" fill="#ffffff" stroke="#000000" pointer-events="all" /><path d="M 219 187 L 219 197 M 243 187 L 243 197" fill="none" stroke="#000000" stroke-miterlimit="10" pointer-events="all" /><rect x="216" y="197" width="30" height="10" fill="#ffffff" stroke="#000000" pointer-events="all" /><path d="M 219 197 L 219 207 M 243 197 L 243 207" fill="none" stroke="#000000" stroke-miterlimit="10" pointer-events="all" /><rect x="386" y="217" width="80" height="20" fill="none" stroke="none" pointer-events="all" /><g transform="translate(-0.5 -0.5)"><switch><text x="426" y="231" fill="#000000" font-family="Helvetica" font-size="12px" text-anchor="middle">未剪辑视频</text></switch></g><rect x="411" y="7" width="30" height="10" fill="#ffffff" stroke="#000000" pointer-events="all" /><path d="M 414 7 L 414 17 M 438 7 L 438 17" fill="none" stroke="#000000" stroke-miterlimit="10" pointer-events="all" /><rect x="411" y="17" width="30" height="10" fill="#ffffff" stroke="#000000" pointer-events="all" /><path d="M 414 17 L 414 27 M 438 17 L 438 27" fill="none" stroke="#000000" stroke-miterlimit="10" pointer-events="all" /><rect x="411" y="27" width="30" height="10" fill="#ffffff" stroke="#000000" pointer-events="all" /><path d="M 414 27 L 414 37 M 438 27 L 438 37" fill="none" stroke="#000000" stroke-miterlimit="10" pointer-events="all" /><rect x="411" y="37" width="30" height="10" fill="#ffffff" stroke="#000000" pointer-events="all" /><path d="M 414 37 L 414 47 M 438 37 L 438 47" fill="none" stroke="#000000" stroke-miterlimit="10" pointer-events="all" /><rect x="411" y="47" width="30" height="10" fill="#ffffff" stroke="#000000" pointer-events="all" /><path d="M 414 47 L 414 57 M 438 47 L 438 57" fill="none" stroke="#000000" stroke-miterlimit="10" pointer-events="all" /><rect x="411" y="57" width="30" height="10" fill="#ffffff" stroke="#000000" pointer-events="all" /><path d="M 414 57 L 414 67 M 438 57 L 438 67" fill="none" stroke="#000000" stroke-miterlimit="10" pointer-events="all" /><rect x="411" y="67" width="30" height="10" fill="#ffffff" stroke="#000000" pointer-events="all" /><path d="M 414 67 L 414 77 M 438 67 L 438 77" fill="none" stroke="#000000" stroke-miterlimit="10" pointer-events="all" /><rect x="411" y="77" width="30" height="10" fill="#ffffff" stroke="#000000" pointer-events="all" /><path d="M 414 77 L 414 87 M 438 77 L 438 87" fill="none" stroke="#000000" stroke-miterlimit="10" pointer-events="all" /><rect x="411" y="87" width="30" height="10" fill="#ffffff" stroke="#000000" pointer-events="all" /><path d="M 414 87 L 414 97 M 438 87 L 438 97" fill="none" stroke="#000000" stroke-miterlimit="10" pointer-events="all" /><rect x="411" y="97" width="30" height="10" fill="#ffffff" stroke="#000000" pointer-events="all" /><path d="M 414 97 L 414 107 M 438 97 L 438 107" fill="none" stroke="#000000" stroke-miterlimit="10" pointer-events="all" /><rect x="411" y="107" width="30" height="10" fill="#ffffff" stroke="#000000" pointer-events="all" /><path d="M 414 107 L 414 117 M 438 107 L 438 117" fill="none" stroke="#000000" stroke-miterlimit="10" pointer-events="all" /><rect x="411" y="117" width="30" height="10" fill="#ffffff" stroke="#000000" pointer-events="all" /><path d="M 414 117 L 414 127 M 438 117 L 438 127" fill="none" stroke="#000000" stroke-miterlimit="10" pointer-events="all" /><rect x="411" y="127" width="30" height="10" fill="#ffffff" stroke="#000000" pointer-events="all" /><path d="M 414 127 L 414 137 M 438 127 L 438 137" fill="none" stroke="#000000" stroke-miterlimit="10" pointer-events="all" /><rect x="411" y="137" width="30" height="10" fill="#ffffff" stroke="#000000" pointer-events="all" /><path d="M 414 137 L 414 147 M 438 137 L 438 147" fill="none" stroke="#000000" stroke-miterlimit="10" pointer-events="all" /><rect x="411" y="147" width="30" height="10" fill="#ffffff" stroke="#000000" pointer-events="all" /><path d="M 414 147 L 414 157 M 438 147 L 438 157" fill="none" stroke="#000000" stroke-miterlimit="10" pointer-events="all" /><rect x="411" y="157" width="30" height="10" fill="#ffffff" stroke="#000000" pointer-events="all" /><path d="M 414 157 L 414 167 M 438 157 L 438 167" fill="none" stroke="#000000" stroke-miterlimit="10" pointer-events="all" /><rect x="411" y="167" width="30" height="10" fill="#1ba1e2" stroke="#006eaf" pointer-events="all" /><path d="M 414 167 L 414 177 M 438 167 L 438 177" fill="none" stroke="#006eaf" stroke-miterlimit="10" pointer-events="all" /><rect x="411" y="177" width="30" height="10" fill="#1ba1e2" stroke="#006eaf" pointer-events="all" /><path d="M 414 177 L 414 187 M 438 177 L 438 187" fill="none" stroke="#006eaf" stroke-miterlimit="10" pointer-events="all" /><rect x="411" y="187" width="30" height="10" fill="#1ba1e2" stroke="#006eaf" pointer-events="all" /><path d="M 414 187 L 414 197 M 438 187 L 438 197" fill="none" stroke="#006eaf" stroke-miterlimit="10" pointer-events="all" /><rect x="411" y="197" width="30" height="10" fill="#ffffff" stroke="#000000" pointer-events="all" /><path d="M 414 197 L 414 207 M 438 197 L 438 207" fill="none" stroke="#000000" stroke-miterlimit="10" pointer-events="all" /><rect x="866" y="237" width="137" height="19" fill="none" stroke="none" pointer-events="all" /><g transform="translate(-0.5 -0.5)"><switch><text x="935" y="250" fill="#000000" font-family="Helvetica" font-size="12px" text-anchor="middle">(b) 使用 5 帧的滑动窗</text></switch></g><rect x="648" y="217" width="80" height="20" fill="none" stroke="none" pointer-events="all" /><g transform="translate(-0.5 -0.5)"><switch><text x="688" y="231" fill="#000000" font-family="Helvetica" font-size="12px" text-anchor="middle">未剪辑视频</text></switch></g><rect x="673" y="7" width="30" height="10" fill="#ffffff" stroke="#000000" pointer-events="all" /><path d="M 676 7 L 676 17 M 700 7 L 700 17" fill="none" stroke="#000000" stroke-miterlimit="10" pointer-events="all" /><rect x="673" y="17" width="30" height="10" fill="#1ba1e2" stroke="#006eaf" pointer-events="all" /><path d="M 676 17 L 676 27 M 700 17 L 700 27" fill="none" stroke="#006eaf" stroke-miterlimit="10" pointer-events="all" /><rect x="673" y="27" width="30" height="10" fill="#1ba1e2" stroke="#006eaf" pointer-events="all" /><path d="M 676 27 L 676 37 M 700 27 L 700 37" fill="none" stroke="#006eaf" stroke-miterlimit="10" pointer-events="all" /><rect x="673" y="37" width="30" height="10" fill="#1ba1e2" stroke="#006eaf" pointer-events="all" /><path d="M 676 37 L 676 47 M 700 37 L 700 47" fill="none" stroke="#006eaf" stroke-miterlimit="10" pointer-events="all" /><rect x="673" y="47" width="30" height="10" fill="#1ba1e2" stroke="#006eaf" pointer-events="all" /><path d="M 676 47 L 676 57 M 700 47 L 700 57" fill="none" stroke="#006eaf" stroke-miterlimit="10" pointer-events="all" /><rect x="673" y="57" width="30" height="10" fill="#1ba1e2" stroke="#006eaf" pointer-events="all" /><path d="M 676 57 L 676 67 M 700 57 L 700 67" fill="none" stroke="#006eaf" stroke-miterlimit="10" pointer-events="all" /><rect x="673" y="67" width="30" height="10" fill="#ffffff" stroke="#000000" pointer-events="all" /><path d="M 676 67 L 676 77 M 700 67 L 700 77" fill="none" stroke="#000000" stroke-miterlimit="10" pointer-events="all" /><rect x="673" y="77" width="30" height="10" fill="#ffffff" stroke="#000000" pointer-events="all" /><path d="M 676 77 L 676 87 M 700 77 L 700 87" fill="none" stroke="#000000" stroke-miterlimit="10" pointer-events="all" /><rect x="673" y="87" width="30" height="10" fill="#ffffff" stroke="#000000" pointer-events="all" /><path d="M 676 87 L 676 97 M 700 87 L 700 97" fill="none" stroke="#000000" stroke-miterlimit="10" pointer-events="all" /><rect x="673" y="97" width="30" height="10" fill="#ffffff" stroke="#000000" pointer-events="all" /><path d="M 676 97 L 676 107 M 700 97 L 700 107" fill="none" stroke="#000000" stroke-miterlimit="10" pointer-events="all" /><rect x="673" y="107" width="30" height="10" fill="#ffffff" stroke="#000000" pointer-events="all" /><path d="M 676 107 L 676 117 M 700 107 L 700 117" fill="none" stroke="#000000" stroke-miterlimit="10" pointer-events="all" /><rect x="673" y="117" width="30" height="10" fill="#ffffff" stroke="#000000" pointer-events="all" /><path d="M 676 117 L 676 127 M 700 117 L 700 127" fill="none" stroke="#000000" stroke-miterlimit="10" pointer-events="all" /><rect x="673" y="127" width="30" height="10" fill="#ffffff" stroke="#000000" pointer-events="all" /><path d="M 676 127 L 676 137 M 700 127 L 700 137" fill="none" stroke="#000000" stroke-miterlimit="10" pointer-events="all" /><rect x="673" y="137" width="30" height="10" fill="#ffffff" stroke="#000000" pointer-events="all" /><path d="M 676 137 L 676 147 M 700 137 L 700 147" fill="none" stroke="#000000" stroke-miterlimit="10" pointer-events="all" /><rect x="673" y="147" width="30" height="10" fill="#ffffff" stroke="#000000" pointer-events="all" /><path d="M 676 147 L 676 157 M 700 147 L 700 157" fill="none" stroke="#000000" stroke-miterlimit="10" pointer-events="all" /><rect x="673" y="157" width="30" height="10" fill="#ffffff" stroke="#000000" pointer-events="all" /><path d="M 676 157 L 676 167 M 700 157 L 700 167" fill="none" stroke="#000000" stroke-miterlimit="10" pointer-events="all" /><rect x="673" y="167" width="30" height="10" fill="#ffffff" stroke="#000000" pointer-events="all" /><path d="M 676 167 L 676 177 M 700 167 L 700 177" fill="none" stroke="#000000" stroke-miterlimit="10" pointer-events="all" /><rect x="673" y="177" width="30" height="10" fill="#ffffff" stroke="#000000" pointer-events="all" /><path d="M 676 177 L 676 187 M 700 177 L 700 187" fill="none" stroke="#000000" stroke-miterlimit="10" pointer-events="all" /><rect x="673" y="187" width="30" height="10" fill="#ffffff" stroke="#000000" pointer-events="all" /><path d="M 676 187 L 676 197 M 700 187 L 700 197" fill="none" stroke="#000000" stroke-miterlimit="10" pointer-events="all" /><rect x="673" y="197" width="30" height="10" fill="#ffffff" stroke="#000000" pointer-events="all" /><path d="M 676 197 L 676 207 M 700 197 L 700 207" fill="none" stroke="#000000" stroke-miterlimit="10" pointer-events="all" /><rect x="845.5" y="217" width="80" height="20" fill="none" stroke="none" pointer-events="all" /><g transform="translate(-0.5 -0.5)"><switch><text x="886" y="231" fill="#000000" font-family="Helvetica" font-size="12px" text-anchor="middle">未剪辑视频</text></switch></g><rect x="870.5" y="0.25" width="30" height="10" fill="#ffffff" stroke="#000000" pointer-events="all" /><path d="M 873.5 0.25 L 873.5 10.25 M 897.5 0.25 L 897.5 10.25" fill="none" stroke="#000000" stroke-miterlimit="10" pointer-events="all" /><rect x="870.5" y="10.25" width="30" height="10" fill="#ffffff" stroke="#000000" pointer-events="all" /><path d="M 873.5 10.25 L 873.5 20.25 M 897.5 10.25 L 897.5 20.25" fill="none" stroke="#000000" stroke-miterlimit="10" pointer-events="all" /><rect x="870.5" y="20.25" width="30" height="10" fill="#ffffff" stroke="#000000" pointer-events="all" /><path d="M 873.5 20.25 L 873.5 30.25 M 897.5 20.25 L 897.5 30.25" fill="none" stroke="#000000" stroke-miterlimit="10" pointer-events="all" /><rect x="870.5" y="30.25" width="30" height="10" fill="#ffffff" stroke="#000000" pointer-events="all" /><path d="M 873.5 30.25 L 873.5 40.25 M 897.5 30.25 L 897.5 40.25" fill="none" stroke="#000000" stroke-miterlimit="10" pointer-events="all" /><rect x="870.5" y="40.25" width="30" height="10" fill="#ffffff" stroke="#000000" pointer-events="all" /><path d="M 873.5 40.25 L 873.5 50.25 M 897.5 40.25 L 897.5 50.25" fill="none" stroke="#000000" stroke-miterlimit="10" pointer-events="all" /><rect x="870.5" y="50.25" width="30" height="10" fill="#ffffff" stroke="#000000" pointer-events="all" /><path d="M 873.5 50.25 L 873.5 60.25 M 897.5 50.25 L 897.5 60.25" fill="none" stroke="#000000" stroke-miterlimit="10" pointer-events="all" /><rect x="870.5" y="60.25" width="30" height="10" fill="#ffffff" stroke="#000000" pointer-events="all" /><path d="M 873.5 60.25 L 873.5 70.25 M 897.5 60.25 L 897.5 70.25" fill="none" stroke="#000000" stroke-miterlimit="10" pointer-events="all" /><rect x="870.5" y="70.25" width="30" height="10" fill="#ffffff" stroke="#000000" pointer-events="all" /><path d="M 873.5 70.25 L 873.5 80.25 M 897.5 70.25 L 897.5 80.25" fill="none" stroke="#000000" stroke-miterlimit="10" pointer-events="all" /><rect x="870.5" y="80.25" width="30" height="10" fill="#ffffff" stroke="#000000" pointer-events="all" /><path d="M 873.5 80.25 L 873.5 90.25 M 897.5 80.25 L 897.5 90.25" fill="none" stroke="#000000" stroke-miterlimit="10" pointer-events="all" /><rect x="870.5" y="90.25" width="30" height="10" fill="#ffffff" stroke="#000000" pointer-events="all" /><path d="M 873.5 90.25 L 873.5 100.25 M 897.5 90.25 L 897.5 100.25" fill="none" stroke="#000000" stroke-miterlimit="10" pointer-events="all" /><rect x="870.5" y="100.25" width="30" height="10" fill="#ffffff" stroke="#000000" pointer-events="all" /><path d="M 873.5 100.25 L 873.5 110.25 M 897.5 100.25 L 897.5 110.25" fill="none" stroke="#000000" stroke-miterlimit="10" pointer-events="all" /><rect x="870.5" y="110.25" width="30" height="10" fill="#ffffff" stroke="#000000" pointer-events="all" /><path d="M 873.5 110.25 L 873.5 120.25 M 897.5 110.25 L 897.5 120.25" fill="none" stroke="#000000" stroke-miterlimit="10" pointer-events="all" /><rect x="870.5" y="120.25" width="30" height="10" fill="#1ba1e2" stroke="#006eaf" pointer-events="all" /><path d="M 873.5 120.25 L 873.5 130.25 M 897.5 120.25 L 897.5 130.25" fill="none" stroke="#006eaf" stroke-miterlimit="10" pointer-events="all" /><rect x="870.5" y="130.25" width="30" height="10" fill="#1ba1e2" stroke="#006eaf" pointer-events="all" /><path d="M 873.5 130.25 L 873.5 140.25 M 897.5 130.25 L 897.5 140.25" fill="none" stroke="#006eaf" stroke-miterlimit="10" pointer-events="all" /><rect x="870.5" y="140.25" width="30" height="10" fill="#1ba1e2" stroke="#006eaf" pointer-events="all" /><path d="M 873.5 140.25 L 873.5 150.25 M 897.5 140.25 L 897.5 150.25" fill="none" stroke="#006eaf" stroke-miterlimit="10" pointer-events="all" /><rect x="870.5" y="150.25" width="30" height="10" fill="#1ba1e2" stroke="#006eaf" pointer-events="all" /><path d="M 873.5 150.25 L 873.5 160.25 M 897.5 150.25 L 897.5 160.25" fill="none" stroke="#006eaf" stroke-miterlimit="10" pointer-events="all" /><rect x="870.5" y="160.25" width="30" height="10" fill="#1ba1e2" stroke="#006eaf" pointer-events="all" /><path d="M 873.5 160.25 L 873.5 170.25 M 897.5 160.25 L 897.5 170.25" fill="none" stroke="#006eaf" stroke-miterlimit="10" pointer-events="all" /><rect x="870.5" y="170.25" width="30" height="10" fill="#ffffff" stroke="#000000" pointer-events="all" /><path d="M 873.5 170.25 L 873.5 180.25 M 897.5 170.25 L 897.5 180.25" fill="none" stroke="#000000" stroke-miterlimit="10" pointer-events="all" /><rect x="870.5" y="180.25" width="30" height="10" fill="#ffffff" stroke="#000000" pointer-events="all" /><path d="M 873.5 180.25 L 873.5 190.25 M 897.5 180.25 L 897.5 190.25" fill="none" stroke="#000000" stroke-miterlimit="10" pointer-events="all" /><rect x="870.5" y="190.25" width="30" height="10" fill="#ffffff" stroke="#000000" pointer-events="all" /><path d="M 873.5 190.25 L 873.5 200.25 M 897.5 190.25 L 897.5 200.25" fill="none" stroke="#000000" stroke-miterlimit="10" pointer-events="all" /><rect x="1018" y="135.25" width="28" height="20" fill="none" stroke="none" pointer-events="all" /><g transform="translate(-0.5 -0.5)"><switch><text x="1032" y="149" fill="#000000" font-family="Helvetica" font-size="12px" text-anchor="middle">悬崖跳水</text></switch></g><rect x="1043" y="217" width="80" height="20" fill="none" stroke="none" pointer-events="all" /><g transform="translate(-0.5 -0.5)"><switch><text x="1083" y="231" fill="#000000" font-family="Helvetica" font-size="12px" text-anchor="middle">未剪辑视频</text></switch></g><rect x="1068" y="5.25" width="30" height="10" fill="#ffffff" stroke="#000000" pointer-events="all" /><path d="M 1071 5.25 L 1071 15.25 M 1095 5.25 L 1095 15.25" fill="none" stroke="#000000" stroke-miterlimit="10" pointer-events="all" /><rect x="1068" y="15.25" width="30" height="10" fill="#ffffff" stroke="#000000" pointer-events="all" /><path d="M 1071 15.25 L 1071 25.25 M 1095 15.25 L 1095 25.25" fill="none" stroke="#000000" stroke-miterlimit="10" pointer-events="all" /><rect x="1068" y="25.25" width="30" height="10" fill="#ffffff" stroke="#000000" pointer-events="all" /><path d="M 1071 25.25 L 1071 35.25 M 1095 25.25 L 1095 35.25" fill="none" stroke="#000000" stroke-miterlimit="10" pointer-events="all" /><rect x="1068" y="35.25" width="30" height="10" fill="#ffffff" stroke="#000000" pointer-events="all" /><path d="M 1071 35.25 L 1071 45.25 M 1095 35.25 L 1095 45.25" fill="none" stroke="#000000" stroke-miterlimit="10" pointer-events="all" /><rect x="1068" y="45.25" width="30" height="10" fill="#ffffff" stroke="#000000" pointer-events="all" /><path d="M 1071 45.25 L 1071 55.25 M 1095 45.25 L 1095 55.25" fill="none" stroke="#000000" stroke-miterlimit="10" pointer-events="all" /><rect x="1068" y="55.25" width="30" height="10" fill="#ffffff" stroke="#000000" pointer-events="all" /><path d="M 1071 55.25 L 1071 65.25 M 1095 55.25 L 1095 65.25" fill="none" stroke="#000000" stroke-miterlimit="10" pointer-events="all" /><rect x="1068" y="65.25" width="30" height="10" fill="#ffffff" stroke="#000000" pointer-events="all" /><path d="M 1071 65.25 L 1071 75.25 M 1095 65.25 L 1095 75.25" fill="none" stroke="#000000" stroke-miterlimit="10" pointer-events="all" /><rect x="1068" y="75.25" width="30" height="10" fill="#ffffff" stroke="#000000" pointer-events="all" /><path d="M 1071 75.25 L 1071 85.25 M 1095 75.25 L 1095 85.25" fill="none" stroke="#000000" stroke-miterlimit="10" pointer-events="all" /><rect x="1068" y="85.25" width="30" height="10" fill="#ffffff" stroke="#000000" pointer-events="all" /><path d="M 1071 85.25 L 1071 95.25 M 1095 85.25 L 1095 95.25" fill="none" stroke="#000000" stroke-miterlimit="10" pointer-events="all" /><rect x="1068" y="95.25" width="30" height="10" fill="#ffffff" stroke="#000000" pointer-events="all" /><path d="M 1071 95.25 L 1071 105.25 M 1095 95.25 L 1095 105.25" fill="none" stroke="#000000" stroke-miterlimit="10" pointer-events="all" /><rect x="1068" y="105.25" width="30" height="10" fill="#ffffff" stroke="#000000" pointer-events="all" /><path d="M 1071 105.25 L 1071 115.25 M 1095 105.25 L 1095 115.25" fill="none" stroke="#000000" stroke-miterlimit="10" pointer-events="all" /><rect x="1068" y="115.25" width="30" height="10" fill="#ffffff" stroke="#000000" pointer-events="all" /><path d="M 1071 115.25 L 1071 125.25 M 1095 115.25 L 1095 125.25" fill="none" stroke="#000000" stroke-miterlimit="10" pointer-events="all" /><rect x="1068" y="125.25" width="30" height="10" fill="#ffffff" stroke="#000000" pointer-events="all" /><path d="M 1071 125.25 L 1071 135.25 M 1095 125.25 L 1095 135.25" fill="none" stroke="#000000" stroke-miterlimit="10" pointer-events="all" /><rect x="1068" y="135.25" width="30" height="10" fill="#ffffff" stroke="#000000" pointer-events="all" /><path d="M 1071 135.25 L 1071 145.25 M 1095 135.25 L 1095 145.25" fill="none" stroke="#000000" stroke-miterlimit="10" pointer-events="all" /><rect x="1068" y="145.25" width="30" height="10" fill="#ffffff" stroke="#000000" pointer-events="all" /><path d="M 1071 145.25 L 1071 155.25 M 1095 145.25 L 1095 155.25" fill="none" stroke="#000000" stroke-miterlimit="10" pointer-events="all" /><rect x="1068" y="155.25" width="30" height="10" fill="#1ba1e2" stroke="#006eaf" pointer-events="all" /><path d="M 1071 155.25 L 1071 165.25 M 1095 155.25 L 1095 165.25" fill="none" stroke="#006eaf" stroke-miterlimit="10" pointer-events="all" /><rect x="1068" y="165.25" width="30" height="10" fill="#1ba1e2" stroke="#006eaf" pointer-events="all" /><path d="M 1071 165.25 L 1071 175.25 M 1095 165.25 L 1095 175.25" fill="none" stroke="#006eaf" stroke-miterlimit="10" pointer-events="all" /><rect x="1068" y="175.25" width="30" height="10" fill="#1ba1e2" stroke="#006eaf" pointer-events="all" /><path d="M 1071 175.25 L 1071 185.25 M 1095 175.25 L 1095 185.25" fill="none" stroke="#006eaf" stroke-miterlimit="10" pointer-events="all" /><rect x="1068" y="185.25" width="30" height="10" fill="#1ba1e2" stroke="#006eaf" pointer-events="all" /><path d="M 1071 185.25 L 1071 195.25 M 1095 185.25 L 1095 195.25" fill="none" stroke="#006eaf" stroke-miterlimit="10" pointer-events="all" /><rect x="1068" y="195.25" width="30" height="10" fill="#1ba1e2" stroke="#006eaf" pointer-events="all" /><path d="M 1071 195.25 L 1071 205.25 M 1095 195.25 L 1095 205.25" fill="none" stroke="#006eaf" stroke-miterlimit="10" pointer-events="all" /><path d="M 74 37 L 132 37 L 142 52 L 132 67 L 74 67 L 84 52 Z" fill="#000000" stroke="#000000" stroke-miterlimit="10" pointer-events="all" transform="translate(2,3)" opacity="0.25" /><path d="M 74 37 L 132 37 L 142 52 L 132 67 L 74 67 L 84 52 Z" fill="#d5e8d4" stroke="#000000" stroke-miterlimit="10" pointer-events="all" /><g transform="translate(-0.5 -0.5)"><switch><text x="108" y="56" fill="#000000" font-family="Helvetica" font-size="12px" text-anchor="middle">动作识别
网络</text></switch></g><path d="M 334 112 L 352.63 112" fill="none" stroke="#000000" stroke-miterlimit="10" pointer-events="stroke" /><path d="M 357.88 112 L 350.88 115.5 L 352.63 112 L 350.88 108.5 Z" fill="#000000" stroke="#000000" stroke-miterlimit="10" pointer-events="all" /><path d="M 247 112 L 267 112 L 246 112 L 269.63 112" fill="none" stroke="#000000" stroke-miterlimit="10" pointer-events="stroke" /><path d="M 274.88 112 L 267.88 115.5 L 269.63 112 L 267.88 108.5 Z" fill="#000000" stroke="#000000" stroke-miterlimit="10" pointer-events="all" /><rect x="360" y="102" width="28" height="20" fill="none" stroke="none" pointer-events="all" /><g transform="translate(-0.5 -0.5)"><switch><text x="374" y="116" fill="#000000" font-family="Helvetica" font-size="12px" text-anchor="middle">背景</text></switch></g><path d="M 266 97 L 324 97 L 334 112 L 324 127 L 266 127 L 276 112 Z" fill="#000000" stroke="#000000" stroke-miterlimit="10" pointer-events="all" transform="translate(2,3)" opacity="0.25" /><path d="M 266 97 L 324 97 L 334 112 L 324 127 L 266 127 L 276 112 Z" fill="#d5e8d4" stroke="#000000" stroke-miterlimit="10" pointer-events="all" /><g transform="translate(-0.5 -0.5)"><switch><text x="300" y="116" fill="#000000" font-family="Helvetica" font-size="12px" text-anchor="middle">动作识别
网络</text></switch></g><path d="M 529 182.5 L 547.63 182.5" fill="none" stroke="#000000" stroke-miterlimit="10" pointer-events="stroke" /><path d="M 552.88 182.5 L 545.88 186 L 547.63 182.5 L 545.88 179 Z" fill="#000000" stroke="#000000" stroke-miterlimit="10" pointer-events="all" /><path d="M 442 182.5 L 462 182.43 L 441 182.43 L 464.58 182.43" fill="none" stroke="#000000" stroke-miterlimit="10" pointer-events="stroke" /><path d="M 469.83 182.43 L 462.83 185.93 L 464.58 182.43 L 462.83 178.93 Z" fill="#000000" stroke="#000000" stroke-miterlimit="10" pointer-events="all" /><rect x="555" y="172.5" width="28" height="20" fill="none" stroke="none" pointer-events="all" /><g transform="translate(-0.5 -0.5)"><switch><text x="569" y="186" fill="#000000" font-family="Helvetica" font-size="12px" text-anchor="middle">背景</text></switch></g><path d="M 461 167.5 L 519 167.5 L 529 182.5 L 519 197.5 L 461 197.5 L 471 182.5 Z" fill="#000000" stroke="#000000" stroke-miterlimit="10" pointer-events="all" transform="translate(2,3)" opacity="0.25" /><path d="M 461 167.5 L 519 167.5 L 529 182.5 L 519 197.5 L 461 197.5 L 471 182.5 Z" fill="#d5e8d4" stroke="#000000" stroke-miterlimit="10" pointer-events="all" /><g transform="translate(-0.5 -0.5)"><switch><text x="495" y="186" fill="#000000" font-family="Helvetica" font-size="12px" text-anchor="middle">动作识别
网络</text></switch></g><path d="M 791 42 L 809.63 42" fill="none" stroke="#000000" stroke-miterlimit="10" pointer-events="stroke" /><path d="M 814.88 42 L 807.88 45.5 L 809.63 42 L 807.88 38.5 Z" fill="#000000" stroke="#000000" stroke-miterlimit="10" pointer-events="all" /><path d="M 704 42 L 724 42 L 703 42 L 726.63 42" fill="none" stroke="#000000" stroke-miterlimit="10" pointer-events="stroke" /><path d="M 731.88 42 L 724.88 45.5 L 726.63 42 L 724.88 38.5 Z" fill="#000000" stroke="#000000" stroke-miterlimit="10" pointer-events="all" /><rect x="817" y="32" width="28" height="20" fill="none" stroke="none" pointer-events="all" /><g transform="translate(-0.5 -0.5)"><switch><text x="831" y="46" fill="#000000" font-family="Helvetica" font-size="12px" text-anchor="middle">背景</text></switch></g><path d="M 723 27 L 781 27 L 791 42 L 781 57 L 723 57 L 733 42 Z" fill="#000000" stroke="#000000" stroke-miterlimit="10" pointer-events="all" transform="translate(2,3)" opacity="0.25" /><path d="M 723 27 L 781 27 L 791 42 L 781 57 L 723 57 L 733 42 Z" fill="#d5e8d4" stroke="#000000" stroke-miterlimit="10" pointer-events="all" /><g transform="translate(-0.5 -0.5)"><switch><text x="757" y="46" fill="#000000" font-family="Helvetica" font-size="12px" text-anchor="middle">动作识别
网络</text></switch></g><path d="M 988.47 145.25 L 1007.1 145.25" fill="none" stroke="#000000" stroke-miterlimit="10" pointer-events="stroke" /><path d="M 1012.35 145.25 L 1005.35 148.75 L 1007.1 145.25 L 1005.35 141.75 Z" fill="#000000" stroke="#000000" stroke-miterlimit="10" pointer-events="all" /><path d="M 901.47 145.25 L 921.43 145.29 L 900.57 145.29 L 924.08 145.29" fill="none" stroke="#000000" stroke-miterlimit="10" pointer-events="stroke" /><path d="M 929.33 145.29 L 922.33 148.79 L 924.08 145.29 L 922.33 141.79 Z" fill="#000000" stroke="#000000" stroke-miterlimit="10" pointer-events="all" /><path d="M 920.47 130.25 L 978.47 130.25 L 988.47 145.25 L 978.47 160.25 L 920.47 160.25 L 930.47 145.25 Z" fill="#000000" stroke="#000000" stroke-miterlimit="10" pointer-events="all" transform="translate(2,3)" opacity="0.25" /><path d="M 920.47 130.25 L 978.47 130.25 L 988.47 145.25 L 978.47 160.25 L 920.47 160.25 L 930.47 145.25 Z" fill="#d5e8d4" stroke="#000000" stroke-miterlimit="10" pointer-events="all" /><g transform="translate(-0.5 -0.5)"><switch><text x="954" y="149" fill="#000000" font-family="Helvetica" font-size="12px" text-anchor="middle">动作识别
网络</text></switch></g><path d="M 1185.93 180.25 L 1204.56 180.25" fill="none" stroke="#000000" stroke-miterlimit="10" pointer-events="stroke" /><path d="M 1209.81 180.25 L 1202.81 183.75 L 1204.56 180.25 L 1202.81 176.75 Z" fill="#000000" stroke="#000000" stroke-miterlimit="10" pointer-events="all" /><path d="M 1098.93 180.25 L 1118.86 180.29 L 1097.86 180.29 L 1121.54 180.29" fill="none" stroke="#000000" stroke-miterlimit="10" pointer-events="stroke" /><path d="M 1126.79 180.29 L 1119.79 183.79 L 1121.54 180.29 L 1119.79 176.79 Z" fill="#000000" stroke="#000000" stroke-miterlimit="10" pointer-events="all" /><path d="M 1117.93 165.25 L 1175.93 165.25 L 1185.93 180.25 L 1175.93 195.25 L 1117.93 195.25 L 1127.93 180.25 Z" fill="#000000" stroke="#000000" stroke-miterlimit="10" pointer-events="all" transform="translate(2,3)" opacity="0.25" /><path d="M 1117.93 165.25 L 1175.93 165.25 L 1185.93 180.25 L 1175.93 195.25 L 1117.93 195.25 L 1127.93 180.25 Z" fill="#d5e8d4" stroke="#000000" stroke-miterlimit="10" pointer-events="all" /><g transform="translate(-0.5 -0.5)"><switch><text x="1152" y="184" fill="#000000" font-family="Helvetica" font-size="12px" text-anchor="middle">动作识别
网络</text></switch></g><rect x="1212.97" y="170.25" width="28" height="20" fill="none" stroke="none" pointer-events="all" /><g transform="translate(-0.5 -0.5)"><switch><text x="1227" y="184" fill="#000000" font-family="Helvetica" font-size="12px" text-anchor="middle">背景</text></switch></g></g><switch><g requiredFeatures="http://www.w3.org/TR/SVG11/feature#Extensibility" /><a transform="translate(0,-5)" target="_blank"><text text-anchor="middle" font-size="10px" x="50%" y="100%">Viewer does not support full SVG 1.1</text></a></switch></svg>