<?xml version='1.0' encoding='utf-8'?>
<svg xmlns="http://www.w3.org/2000/svg" version="1.1" width="517" height="125" viewBox="-0.5 -0.5 517 125" content="&lt;mxfile host=&quot;app.diagrams.net&quot; modified=&quot;2022-04-30T01:39:17.120Z&quot; agent=&quot;5.0 (Macintosh; Intel Mac OS X 10_15_7) AppleWebKit/537.36 (KHTML, like Gecko) Chrome/100.0.4896.127 Safari/537.36&quot; etag=&quot;CKRP1JM_YkKkj9n4LXcz&quot; version=&quot;17.5.0&quot; type=&quot;github&quot;&gt;&lt;diagram id=&quot;sPM90FPY1Y80csjSWMxG&quot; name=&quot;Page-1&quot;&gt;5Zhdb5swFIZ/jS9Xgc3nZUhIq0mT2kXTtksKBqwanLlOk+zXzwY7QKBbKiVVuzqRYr/HHMx5fE4AgObV7pon6/ILyzAF0Mp2AC0AhDZ0AvmjlH2r+C5shYKTTE/qhBX5jbVoaXVDMvw4mCgYo4Ksh2LK6hqnYqAlnLPtcFrO6PCs66TAI2GVJnSsfieZKFs1gH6n32BSlObMthe2lioxk/WVPJZJxrY9CcUAzTljou1VuzmmKngmLu1xy2esh4VxXItTDvh8d/szcCC92zEP3eboR/SVfNJenhK60Re8iKWLxUqvWexNIEpRUdmzAYoOV2LJQZY8ljjTg4SSopb9VK4Jcyk8YS6IjOZMGyqSZcqj8rFWnqtdoTbOVcsKtr/K7d74V1vJVr2aibQ0g5xQOmeU8WZ1KHfVR+msFj29bep8grMH3LN4TZOWcRxNUOTa8a4n6bheY1ZhwfdyirFamrHe5NDT4223ZWyzD8rednG1luhdWhxcdyBlR7N8AVc44gpiD4QuiCzVCRZgFoPYBeG8UWQnAlH8zqDHnvq8BLrVtPNAPyT236Cj14SOJqA7IJqpb+wrvjNHdUIHhEttmvnvDPq8aZfOaOS+tYx2JuC6IFiC0L79trp5ZxSXTTsPK8c/gZXzmqzcMatjPCae6YbTfcST9AHLVUXbkgi8Wiepsm1lpKXWI8nZps4aemqUU7K+MYyfLXXPRZ4zkQjCFOXwTCXRdtwBCWSNSUxVRO9SIPwPCsLx4NUQBbR8o/wDBjQQz04jmChho3+j8W3KMTEZAzGkMYx5zWp8FG4tnV7upvB3zM+VLmhYuJAzxcibYIQulTDh5H1jEKqbhw9EBrpvjox5IP5wtQx6R5XMP62O2fbFUIyfmgH0qAr1vewUornwVlCPJs3rCRMr79eGtRNQnjfPKT1JH9tWxVkwlXKtW7nu1vPwbFLureB/zU6ny8bXyE857N7SNLbeuy4U/wE=&lt;/diagram&gt;&lt;/mxfile&gt;"><defs><filter id="dropShadow"><feGaussianBlur in="SourceAlpha" stdDeviation="1.7" result="blur" /><feOffset in="blur" dx="3" dy="3" result="offsetBlur" /><feFlood flood-color="#3D4574" flood-opacity="0.4" result="offsetColor" /><feComposite in="offsetColor" in2="offsetBlur" operator="in" result="offsetBlur" /><feBlend in="SourceGraphic" in2="offsetBlur" /></filter></defs><g filter="url(#dropShadow)"><path d="M 0 0 L 110 0 L 110 0 L 120 25 L 110 50 L 110 50 L 0 50 L 10 25 Z" fill="#f5f5f5" stroke="#666666" stroke-miterlimit="10" pointer-events="all" /><g transform="translate(-0.5 -0.5)"><switch><text x="60" y="29" fill="#333333" font-family="Helvetica" font-size="12px" text-anchor="middle">DE/DS</text></switch></g><path d="M 120 0 L 240 0 L 240 0 L 250 25 L 240 50 L 240 50 L 120 50 L 130 25 Z" fill="#e6e6e6" stroke="#000000" stroke-miterlimit="10" pointer-events="all" /><g transform="translate(-0.5 -0.5)"><switch><text x="185" y="29" fill="#333333" font-family="Helvetica" font-size="12px" text-anchor="middle">数据地图</text></switch></g><path d="M 250 0 L 360 0 L 360 0 L 370 25 L 360 50 L 360 50 L 250 50 L 260 25 Z" fill="#cccccc" stroke="#666666" stroke-miterlimit="10" pointer-events="all" /><g transform="translate(-0.5 -0.5)"><switch><text x="310" y="29" fill="rgb(0, 0, 0)" font-family="Helvetica" font-size="12px" text-anchor="middle">人群生产</text></switch></g><path d="M 370 0 L 500 0 L 500 0 L 510 25 L 500 50 L 500 50 L 370 50 L 380 25 Z" fill="#ffffff" stroke="rgb(0, 0, 0)" stroke-miterlimit="10" pointer-events="all" /><g transform="translate(-0.5 -0.5)"><switch><text x="440" y="29" fill="rgb(0, 0, 0)" font-family="Helvetica" font-size="12px" text-anchor="middle">发PUSH</text></switch></g><path d="M 75 40 L 67.5 40 Q 60 40 60 50 L 60 60 Q 60 70 52.5 70 L 48.75 70 Q 45 70 52.5 70 L 56.25 70 Q 60 70 60 80 L 60 90 Q 60 100 67.5 100 L 75 100" fill="none" stroke="#000000" stroke-miterlimit="10" transform="translate(60,0)scale(-1,1)translate(-60,0)rotate(-90,60,70)" pointer-events="all" /><path d="M 392.5 -52.5 L 385 -52.5 Q 377.5 -52.5 377.5 -42.5 L 377.5 60 Q 377.5 70 370 70 L 366.25 70 Q 362.5 70 370 70 L 373.75 70 Q 377.5 70 377.5 80 L 377.5 182.5 Q 377.5 192.5 385 192.5 L 392.5 192.5" fill="none" stroke="#000000" stroke-miterlimit="10" transform="translate(377.5,0)scale(-1,1)translate(-377.5,0)rotate(-90,377.5,70)" pointer-events="all" /><rect x="30" y="87.5" width="60" height="30" fill="none" stroke="none" pointer-events="all" /><g transform="translate(-0.5 -0.5)"><switch><text x="60" y="106" fill="rgb(0, 0, 0)" font-family="Helvetica" font-size="12px" text-anchor="middle">生产数据</text></switch></g><rect x="150" y="87.5" width="60" height="30" fill="none" stroke="none" pointer-events="all" /><g transform="translate(-0.5 -0.5)"><switch><text x="180" y="106" fill="rgb(0, 0, 0)" font-family="Helvetica" font-size="12px" text-anchor="middle">找数据</text></switch></g><path d="M 195 15 L 187.5 15 Q 180 15 180 25 L 180 60 Q 180 70 172.5 70 L 168.75 70 Q 165 70 172.5 70 L 176.25 70 Q 180 70 180 80 L 180 115 Q 180 125 187.5 125 L 195 125" fill="none" stroke="#000000" stroke-miterlimit="10" transform="translate(180,0)scale(-1,1)translate(-180,0)rotate(-90,180,70)" pointer-events="all" /><rect x="347.5" y="87.5" width="60" height="30" fill="none" stroke="none" pointer-events="all" /><g transform="translate(-0.5 -0.5)"><switch><text x="378" y="106" fill="rgb(0, 0, 0)" font-family="Helvetica" font-size="12px" text-anchor="middle">用数据</text></switch></g></g><switch><g requiredFeatures="http://www.w3.org/TR/SVG11/feature#Extensibility" /><a transform="translate(0,-5)" target="_blank"><text text-anchor="middle" font-size="10px" x="50%" y="100%">Text is not SVG - cannot display</text></a></switch></svg>